<?xml version="1.0" encoding="utf-8"?>
<!-- Generator: Adobe Illustrator 17.0.0, SVG Export Plug-In . SVG Version: 6.00 Build 0)  -->
<!DOCTYPE svg PUBLIC "-//W3C//DTD SVG 1.1//EN" "http://www.w3.org/Graphics/SVG/1.1/DTD/svg11.dtd">
<svg version="1.1" id="图层_1" xmlns="http://www.w3.org/2000/svg" xmlns:xlink="http://www.w3.org/1999/xlink" x="0px" y="0px"
	 width="20px" height="21.467px" viewBox="0 0 20 21.467" enable-background="new 0 0 20 21.467" xml:space="preserve">
<g>
	<path fill="#A9C508" d="M19.059,15.957l-4.667-5.213l4.987-5.626l0.016-0.021c0.926-1.29,0.771-3.035-0.369-4.15
		C18.4,0.337,17.569,0,16.685,0c-0.884,0-1.716,0.337-2.354,0.961L9.997,5.823L5.656,0.948c-0.625-0.61-1.457-0.947-2.342-0.947
		S1.597,0.337,0.973,0.948C0.348,1.56,0.003,2.373,0,3.239C-0.002,4.1,0.336,4.91,0.94,5.507l6.698,7.558
		c0.631,0.613,1.471,0.95,2.364,0.95c0.818,0,1.599-0.29,2.212-0.829l1.157-1.296l4.574,5.107c0.333,0.326,0.516,0.761,0.514,1.226
		c-0.002,0.465-0.187,0.903-0.523,1.231c-0.334,0.326-0.778,0.506-1.252,0.506c-0.468,0-0.909-0.176-1.228-0.482l-3.8-4.269
		l-0.001,0.001c-0.141-0.151-0.342-0.247-0.567-0.247c-0.425,0-0.77,0.337-0.77,0.753c0,0.183,0.069,0.349,0.18,0.479L10.495,16.2
		l3.849,4.32c0.625,0.611,1.456,0.947,2.341,0.947s1.716-0.336,2.341-0.947c0.625-0.611,0.971-1.425,0.974-2.291
		C20.003,17.366,19.664,16.556,19.059,15.957z M7.252,8.904c-0.216,0.266-0.38,0.57-0.488,0.894L2.087,4.502L2.056,4.469
		C1.722,4.143,1.539,3.707,1.54,3.243c0.001-0.465,0.187-0.902,0.522-1.23c0.335-0.327,0.779-0.507,1.252-0.507
		c0.468,0,0.909,0.177,1.228,0.483l4.433,4.98L7.252,8.904z M11.14,12.104c-0.313,0.261-0.717,0.405-1.138,0.405
		c-0.487,0-0.943-0.184-1.284-0.518c-0.633-0.619-0.746-1.541-0.273-2.135l1.551-1.741l2.351,2.633L11.14,12.104z M13.369,9.602
		l-2.351-2.633l4.425-4.966c0.333-0.321,0.774-0.497,1.242-0.497c0.473,0,0.917,0.18,1.252,0.507c0.688,0.673,0.69,1.77-0.002,2.45
		L13.369,9.602z"/>
	<path fill="#A9C508" d="M4.862,11.981c-0.253,0-0.475,0.121-0.615,0.304l-4.018,4.51C0.088,16.932,0,17.122,0,17.331
		c0,0.416,0.345,0.753,0.77,0.753c0.253,0,0.475-0.121,0.615-0.304l4.018-4.51c0.142-0.137,0.23-0.326,0.23-0.536
		C5.633,12.318,5.288,11.981,4.862,11.981z"/>
</g>
</svg>
